<?xml version="1.0" encoding="UTF-8" standalone="no"?>
<svg width="40px" height="82px" viewBox="0 0 40 82" version="1.1" xmlns="http://www.w3.org/2000/svg" xmlns:xlink="http://www.w3.org/1999/xlink" xmlns:sketch="http://www.bohemiancoding.com/sketch/ns">
    <!-- Generator: Sketch 3.2.1 (9971) - http://www.bohemiancoding.com/sketch -->
    <title>milk_bottle</title>
    <desc>Created with Sketch.</desc>
    <defs></defs>
    <g id="Page-1" stroke="none" stroke-width="1" fill="none" fill-rule="evenodd" sketch:type="MSPage">
        <g id="milk_bottle" sketch:type="MSLayerGroup" fill="#000000">
            <g id="bottle" sketch:type="MSShapeGroup">
                <g id="noun_47934_cc">
                    <path d="M8.75,81.312 L31.25,81.312 C35.902,81.312 39.688,77.527 39.688,72.874 L39.688,72.874 L39.688,72.872 L39.688,25.998 L39.688,25.996 C39.686,20.924 36.689,17.925 33.789,15.024 C31.203,12.439 28.782,9.972 28.495,6.122 C29.556,5.719 30.313,4.699 30.313,3.5 C30.313,1.949 29.051,0.688 27.501,0.688 L12.501,0.688 C10.95,0.688 9.689,1.95 9.689,3.5 C9.689,4.699 10.447,5.719 11.507,6.122 C11.22,9.973 8.799,12.439 6.213,15.024 C3.313,17.924 0.316,20.924 0.314,25.996 L0.314,25.998 L0.314,72.873 C0.314,72.873 0.314,72.873 0.314,72.875 L0.314,72.875 C0.312,77.528 4.098,81.312 8.75,81.312 L8.75,81.312 L8.75,81.312 Z M12.5,2.562 L27.5,2.562 C28.017,2.562 28.438,2.983 28.438,3.5 C28.438,4.017 28.017,4.438 27.5,4.438 L12.5,4.438 C11.983,4.438 11.562,4.017 11.562,3.5 C11.562,2.983 11.983,2.562 12.5,2.562 L12.5,2.562 L12.5,2.562 Z M7.538,16.351 C10.25,13.637 13.017,10.817 13.368,6.313 L26.632,6.313 C26.984,10.817 29.75,13.637 32.462,16.351 C35.214,19.103 37.813,21.701 37.813,26 L37.813,72.873 C37.813,72.873 37.813,72.873 37.813,72.875 L37.813,72.875 C37.813,76.493 34.869,79.437 31.251,79.437 L8.751,79.437 C5.133,79.437 2.189,76.493 2.189,72.875 L2.189,72.875 L2.189,72.873 L2.189,26 C2.188,21.701 4.786,19.103 7.538,16.351 L7.538,16.351 L7.538,16.351 Z" id="Shape"></path>
                </g>
            </g>
            <path d="M19.566,69.5 C23.184,69.5 26.128,66.556 26.128,62.938 C26.128,62.42 25.709,62 25.19,62 C24.671,62 24.252,62.419 24.252,62.938 C24.252,65.523 22.15,67.626 19.564,67.626 C16.978,67.626 14.876,65.524 14.876,62.938 C14.876,62.42 14.457,62 13.938,62 C13.419,62 13,62.419 13,62.938 C13.004,66.556 15.948,69.5 19.566,69.5 L19.566,69.5 Z" id="Shape" sketch:type="MSShapeGroup"></path>
            <path d="M8.938,57.876 L12.688,57.876 C13.206,57.876 13.626,57.457 13.626,56.938 C13.626,56.419 13.207,56 12.688,56 L8.938,56 C8.42,56 8,56.419 8,56.938 C8,57.457 8.42,57.876 8.938,57.876 L8.938,57.876 Z" id="Shape" sketch:type="MSShapeGroup"></path>
            <path d="M27.938,57.876 L31.688,57.876 C32.206,57.876 32.626,57.457 32.626,56.938 C32.626,56.419 32.207,56 31.688,56 L27.938,56 C27.42,56 27,56.419 27,56.938 C27,57.457 27.42,57.876 27.938,57.876 L27.938,57.876 Z" id="Shape" sketch:type="MSShapeGroup"></path>
        </g>
    </g>
</svg>