<?xml version="1.0" encoding="UTF-8" standalone="no"?>
<svg width="40px" height="82px" viewBox="0 0 40 82" version="1.1" xmlns="http://www.w3.org/2000/svg" xmlns:xlink="http://www.w3.org/1999/xlink" xmlns:sketch="http://www.bohemiancoding.com/sketch/ns">
    <!-- Generator: Sketch 3.2.1 (9971) - http://www.bohemiancoding.com/sketch -->
    <title>milk_20</title>
    <desc>Created with Sketch.</desc>
    <defs></defs>
    <g id="Page-1" stroke="none" stroke-width="1" fill="none" fill-rule="evenodd" sketch:type="MSPage">
        <g id="milk_20" sketch:type="MSLayerGroup" fill="#000000">
            <g id="Page-1" sketch:type="MSShapeGroup">
                <g id="milk_bottle">
                    <g id="bottle">
                        <g id="noun_47934_cc">
                            <path d="M8.75,81.312 L31.25,81.312 C35.902,81.312 39.688,77.527 39.688,72.874 L39.688,72.874 L39.688,72.872 L39.688,25.998 L39.688,25.996 C39.686,20.924 36.689,17.925 33.789,15.024 C31.203,12.439 28.782,9.972 28.495,6.122 C29.556,5.719 30.313,4.699 30.313,3.5 C30.313,1.949 29.051,0.688 27.501,0.688 L12.501,0.688 C10.95,0.688 9.689,1.95 9.689,3.5 C9.689,4.699 10.447,5.719 11.507,6.122 C11.22,9.973 8.799,12.439 6.213,15.024 C3.313,17.924 0.316,20.924 0.314,25.996 L0.314,25.998 L0.314,72.873 C0.314,72.873 0.314,72.873 0.314,72.875 L0.314,72.875 C0.312,77.528 4.098,81.312 8.75,81.312 L8.75,81.312 L8.75,81.312 Z M12.5,2.562 L27.5,2.562 C28.017,2.562 28.438,2.983 28.438,3.5 C28.438,4.017 28.017,4.438 27.5,4.438 L12.5,4.438 C11.983,4.438 11.562,4.017 11.562,3.5 C11.562,2.983 11.983,2.562 12.5,2.562 L12.5,2.562 L12.5,2.562 Z M7.538,16.351 C10.25,13.637 13.017,10.817 13.368,6.313 L26.632,6.313 C26.984,10.817 29.75,13.637 32.462,16.351 C35.214,19.103 37.813,21.701 37.813,26 L37.813,72.873 C37.813,72.873 37.813,72.873 37.813,72.875 L37.813,72.875 C37.813,76.493 34.869,79.437 31.251,79.437 L8.751,79.437 C5.133,79.437 2.189,76.493 2.189,72.875 L2.189,72.875 L2.189,72.873 L2.189,26 C2.188,21.701 4.786,19.103 7.538,16.351 L7.538,16.351 L7.538,16.351 Z" id="Shape"></path>
                        </g>
                    </g>
                </g>
            </g>
            <path d="M10.8740009,59.991 C11.9080009,59.991 12.7490009,58.731 12.7490009,57.179 C12.7490009,56.293 12.4710009,55.514 12.0460009,55 L9.06200089,56.492 C9.02500089,56.714 9.00000089,56.94 9.00000089,57.179 C8.99900089,58.731 9.83800089,59.991 10.8740009,59.991 L10.8740009,59.991 Z" id="Shape" sketch:type="MSShapeGroup"></path>
            <path d="M28.8740009,59.991 C29.9100009,59.991 30.7490009,58.731 30.7490009,57.179 C30.7490009,56.941 30.7240009,56.714 30.6870009,56.492 L27.7030009,55 C27.2780009,55.514 27.0000009,56.292 27.0000009,57.179 C26.9990009,58.731 27.8400009,59.991 28.8740009,59.991 L28.8740009,59.991 Z" id="Shape" sketch:type="MSShapeGroup"></path>
            <path d="M8.938,65.876 C9.465,65.876 9.691,66.079 10.15,66.539 C10.661,67.05 11.362,67.751 12.688,67.751 C14.014,67.751 14.715,67.05 15.226,66.539 C15.685,66.079 15.911,65.876 16.438,65.876 C16.965,65.876 17.191,66.079 17.65,66.539 C18.161,67.05 18.862,67.751 20.188,67.751 C21.514,67.751 22.215,67.05 22.726,66.539 C23.185,66.079 23.411,65.876 23.938,65.876 C24.465,65.876 24.691,66.079 25.15,66.539 C25.661,67.05 26.362,67.751 27.688,67.751 C29.014,67.751 29.715,67.05 30.226,66.539 C30.685,66.079 30.911,65.876 31.438,65.876 C31.957,65.876 32.376,65.457 32.376,64.938 C32.376,64.419 31.957,64 31.438,64 C30.112,64 29.411,64.701 28.9,65.212 C28.441,65.672 28.215,65.875 27.688,65.875 C27.161,65.875 26.935,65.672 26.476,65.212 C25.965,64.701 25.264,64 23.938,64 C22.612,64 21.911,64.701 21.4,65.212 C20.941,65.672 20.715,65.875 20.188,65.875 C19.661,65.875 19.435,65.672 18.976,65.212 C18.465,64.701 17.764,64 16.438,64 C15.112,64 14.411,64.701 13.9,65.212 C13.441,65.672 13.215,65.875 12.688,65.875 C12.161,65.875 11.935,65.672 11.476,65.212 C10.965,64.701 10.264,64 8.938,64 C8.419,64 8,64.419 8,64.938 C8,65.457 8.419,65.876 8.938,65.876 L8.938,65.876 Z" id="Shape" sketch:type="MSShapeGroup"></path>
        </g>
    </g>
</svg>