<?xml version="1.0" encoding="UTF-8" standalone="no"?>
<svg width="25px" height="4px" viewBox="0 0 25 4" version="1.1" xmlns="http://www.w3.org/2000/svg" xmlns:xlink="http://www.w3.org/1999/xlink" xmlns:sketch="http://www.bohemiancoding.com/sketch/ns">
    <!-- Generator: Sketch 3.2.1 (9971) - http://www.bohemiancoding.com/sketch -->
    <title>Shape</title>
    <desc>Created with Sketch.</desc>
    <defs></defs>
    <g id="Page-1" stroke="none" stroke-width="1" fill="none" fill-rule="evenodd" sketch:type="MSPage">
        <path d="M0.938,1.876 C1.465,1.876 1.691,2.079 2.15,2.539 C2.661,3.05 3.362,3.751 4.688,3.751 C6.014,3.751 6.715,3.05 7.226,2.539 C7.685,2.079 7.911,1.876 8.438,1.876 C8.965,1.876 9.191,2.079 9.65,2.539 C10.161,3.05 10.862,3.751 12.188,3.751 C13.514,3.751 14.215,3.05 14.726,2.539 C15.185,2.079 15.411,1.876 15.938,1.876 C16.465,1.876 16.691,2.079 17.15,2.539 C17.661,3.05 18.362,3.751 19.688,3.751 C21.014,3.751 21.715,3.05 22.226,2.539 C22.685,2.079 22.911,1.876 23.438,1.876 C23.957,1.876 24.376,1.457 24.376,0.938 C24.376,0.419 23.957,0 23.438,0 C22.112,0 21.411,0.701 20.9,1.212 C20.441,1.672 20.215,1.875 19.688,1.875 C19.161,1.875 18.935,1.672 18.476,1.212 C17.965,0.701 17.264,0 15.938,0 C14.612,0 13.911,0.701 13.4,1.212 C12.941,1.672 12.715,1.875 12.188,1.875 C11.661,1.875 11.435,1.672 10.976,1.212 C10.465,0.701 9.764,0 8.438,0 C7.112,0 6.411,0.701 5.9,1.212 C5.441,1.672 5.215,1.875 4.688,1.875 C4.161,1.875 3.935,1.672 3.476,1.212 C2.965,0.701 2.264,0 0.938,0 C0.419,0 0,0.419 0,0.938 C0,1.457 0.419,1.876 0.938,1.876 L0.938,1.876 Z" id="Shape" fill="#000000" sketch:type="MSShapeGroup"></path>
    </g>
</svg>